<?xml version="1.0" encoding="utf-8"?>
<!-- Generator: Adobe Illustrator 23.0.5, SVG Export Plug-In . SVG Version: 6.00 Build 0)  -->
<svg version="1.1" id="Layer_1" xmlns="http://www.w3.org/2000/svg" xmlns:xlink="http://www.w3.org/1999/xlink" x="0px" y="0px"
	 viewBox="0 0 134.97 72.31" style="enable-background:new 0 0 134.97 72.31;" xml:space="preserve">
<style type="text/css">
	.st0{fill:none;stroke:url(#SVGID_1_);stroke-width:1.3105;stroke-linecap:round;stroke-linejoin:round;stroke-miterlimit:10;}
	.st1{fill:none;stroke:url(#SVGID_2_);stroke-width:1.3105;stroke-linecap:round;stroke-linejoin:round;stroke-miterlimit:10;}
	.st2{fill:none;stroke:url(#SVGID_3_);stroke-width:1.3105;stroke-linecap:round;stroke-linejoin:round;stroke-miterlimit:10;}
	.st3{fill:none;stroke:url(#SVGID_4_);stroke-width:1.3105;stroke-linecap:round;stroke-linejoin:round;stroke-miterlimit:10;}
	.st4{fill:none;stroke:url(#SVGID_5_);stroke-width:1.3105;stroke-linecap:round;stroke-linejoin:round;stroke-miterlimit:10;}
	.st5{fill:none;stroke:url(#SVGID_6_);stroke-width:1.3105;stroke-linecap:round;stroke-linejoin:round;stroke-miterlimit:10;}
	.st6{fill:none;stroke:url(#SVGID_7_);stroke-width:1.3105;stroke-linecap:round;stroke-linejoin:round;stroke-miterlimit:10;}
	.st7{fill:none;stroke:url(#SVGID_8_);stroke-width:1.3105;stroke-linecap:round;stroke-linejoin:round;stroke-miterlimit:10;}
	.st8{fill:none;stroke:url(#SVGID_9_);stroke-width:1.3105;stroke-linecap:round;stroke-linejoin:round;stroke-miterlimit:10;}
	.st9{fill:none;stroke:url(#SVGID_10_);stroke-width:1.3105;stroke-linecap:round;stroke-linejoin:round;stroke-miterlimit:10;}
	.st10{fill:none;stroke:url(#SVGID_11_);stroke-width:1.3105;stroke-linecap:round;stroke-linejoin:round;stroke-miterlimit:10;}
	.st11{fill:none;stroke:url(#SVGID_12_);stroke-width:1.3105;stroke-linecap:round;stroke-linejoin:round;stroke-miterlimit:10;}
	.st12{fill:none;stroke:url(#SVGID_13_);stroke-width:1.3105;stroke-linecap:round;stroke-linejoin:round;stroke-miterlimit:10;}
	.st13{fill:none;stroke:url(#SVGID_14_);stroke-width:1.3105;stroke-linecap:round;stroke-linejoin:round;stroke-miterlimit:10;}
	.st14{fill:none;stroke:url(#SVGID_15_);stroke-width:1.3105;stroke-linecap:round;stroke-linejoin:round;stroke-miterlimit:10;}
	.st15{fill:none;stroke:url(#SVGID_16_);stroke-width:1.3105;stroke-linecap:round;stroke-linejoin:round;stroke-miterlimit:10;}
	.st16{fill:none;stroke:url(#SVGID_17_);stroke-width:1.3105;stroke-linecap:round;stroke-linejoin:round;stroke-miterlimit:10;}
	.st17{fill:none;stroke:url(#SVGID_18_);stroke-width:1.3105;stroke-linecap:round;stroke-linejoin:round;stroke-miterlimit:10;}
	.st18{fill:none;stroke:url(#SVGID_19_);stroke-width:1.3105;stroke-linecap:round;stroke-linejoin:round;stroke-miterlimit:10;}
	.st19{fill:none;stroke:url(#SVGID_20_);stroke-width:1.3105;stroke-linecap:round;stroke-linejoin:round;stroke-miterlimit:10;}
	.st20{fill:none;stroke:url(#SVGID_21_);stroke-width:1.3105;stroke-linecap:round;stroke-linejoin:round;stroke-miterlimit:10;}
	.st21{fill:none;stroke:url(#SVGID_22_);stroke-width:1.3105;stroke-linecap:round;stroke-linejoin:round;stroke-miterlimit:10;}
	.st22{fill:none;stroke:url(#SVGID_23_);stroke-width:1.3105;stroke-linecap:round;stroke-linejoin:round;stroke-miterlimit:10;}
	.st23{fill:#27AAE1;}
	.st24{fill:none;stroke:url(#SVGID_24_);stroke-width:1.3105;stroke-linecap:round;stroke-linejoin:round;stroke-miterlimit:10;}
	.st25{fill:none;stroke:url(#SVGID_25_);stroke-width:1.3105;stroke-linecap:round;stroke-linejoin:round;stroke-miterlimit:10;}
	.st26{fill:none;stroke:url(#SVGID_26_);stroke-width:1.3105;stroke-linecap:round;stroke-linejoin:round;stroke-miterlimit:10;}
	.st27{fill:none;stroke:url(#SVGID_27_);stroke-width:1.3105;stroke-linecap:round;stroke-linejoin:round;stroke-miterlimit:10;}
	.st28{fill:none;stroke:url(#SVGID_28_);stroke-width:1.3105;stroke-linecap:round;stroke-linejoin:round;stroke-miterlimit:10;}
	.st29{fill:none;stroke:url(#SVGID_29_);stroke-width:1.3105;stroke-linecap:round;stroke-linejoin:round;stroke-miterlimit:10;}
	.st30{fill:none;stroke:url(#SVGID_30_);stroke-width:1.3105;stroke-linecap:round;stroke-linejoin:round;stroke-miterlimit:10;}
	.st31{fill:none;stroke:url(#SVGID_31_);stroke-width:1.3105;stroke-linecap:round;stroke-linejoin:round;stroke-miterlimit:10;}
	.st32{fill:none;stroke:url(#SVGID_32_);stroke-width:1.3105;stroke-linecap:round;stroke-linejoin:round;stroke-miterlimit:10;}
	.st33{fill:none;stroke:url(#SVGID_33_);stroke-width:1.3105;stroke-linecap:round;stroke-linejoin:round;stroke-miterlimit:10;}
	.st34{fill:none;stroke:url(#SVGID_34_);stroke-width:1.3105;stroke-linecap:round;stroke-linejoin:round;stroke-miterlimit:10;}
	.st35{fill:none;stroke:url(#SVGID_35_);stroke-width:1.3105;stroke-linecap:round;stroke-linejoin:round;stroke-miterlimit:10;}
	.st36{fill:none;stroke:url(#SVGID_36_);stroke-width:1.3105;stroke-linecap:round;stroke-linejoin:round;stroke-miterlimit:10;}
	.st37{fill:none;stroke:url(#SVGID_37_);stroke-width:1.3105;stroke-linecap:round;stroke-linejoin:round;stroke-miterlimit:10;}
	.st38{fill:none;stroke:url(#SVGID_38_);stroke-width:1.3105;stroke-linecap:round;stroke-linejoin:round;stroke-miterlimit:10;}
	.st39{fill:none;stroke:url(#SVGID_39_);stroke-width:1.3105;stroke-linecap:round;stroke-linejoin:round;stroke-miterlimit:10;}
	.st40{fill:none;stroke:url(#SVGID_40_);stroke-width:1.3105;stroke-linecap:round;stroke-linejoin:round;stroke-miterlimit:10;}
	.st41{fill:none;stroke:url(#SVGID_41_);stroke-width:1.3105;stroke-linecap:round;stroke-linejoin:round;stroke-miterlimit:10;}
	.st42{fill:none;stroke:url(#SVGID_42_);stroke-width:1.3105;stroke-linecap:round;stroke-linejoin:round;stroke-miterlimit:10;}
	.st43{fill:none;stroke:url(#SVGID_43_);stroke-width:1.3105;stroke-linecap:round;stroke-linejoin:round;stroke-miterlimit:10;}
	.st44{fill:none;stroke:url(#SVGID_44_);stroke-width:1.3105;stroke-linecap:round;stroke-linejoin:round;stroke-miterlimit:10;}
	.st45{fill:none;stroke:url(#SVGID_45_);stroke-width:1.3105;stroke-linecap:round;stroke-linejoin:round;stroke-miterlimit:10;}
	.st46{fill:none;stroke:url(#SVGID_46_);stroke-width:1.3105;stroke-linecap:round;stroke-linejoin:round;stroke-miterlimit:10;}
	.st47{fill:#ED1C24;}
	.st48{fill:none;stroke:url(#SVGID_47_);stroke-width:1.3105;stroke-linecap:round;stroke-linejoin:round;stroke-miterlimit:10;}
	.st49{fill:#ED1C24;stroke:#ED1C24;stroke-width:0.794;stroke-miterlimit:10;}
	.st50{fill:#27AAE1;stroke:#27AAE1;stroke-width:0.794;stroke-miterlimit:10;}
</style>
<g>
	<g>
		<g>
			<linearGradient id="SVGID_1_" gradientUnits="userSpaceOnUse" x1="22.4923" y1="7.5429" x2="27.9032" y2="7.5429">
				<stop  offset="0" style="stop-color:#27AAE1"/>
				<stop  offset="1" style="stop-color:#2E3192"/>
			</linearGradient>
			<polyline class="st0" points="23.15,7.09 27.25,3.03 23.54,12.05 			"/>
			<linearGradient id="SVGID_2_" gradientUnits="userSpaceOnUse" x1="31.1699" y1="40.9233" x2="49.3746" y2="40.9233">
				<stop  offset="0" style="stop-color:#27AAE1"/>
				<stop  offset="1" style="stop-color:#2E3192"/>
			</linearGradient>
			<line class="st1" x1="31.83" y1="39.37" x2="48.72" y2="42.48"/>
			<linearGradient id="SVGID_3_" gradientUnits="userSpaceOnUse" x1="33.2327" y1="30.3664" x2="49.8196" y2="30.3664">
				<stop  offset="0" style="stop-color:#27AAE1"/>
				<stop  offset="1" style="stop-color:#2E3192"/>
			</linearGradient>
			<path class="st2" d="M48.72,42.48l0.45-4.86c0,0-8.23-6.95-8.32-6.92c-0.1,0.03-6.95-12.45-6.95-12.45l2.79,10.99l3.59,4.69
				L48.72,42.48z"/>
			<linearGradient id="SVGID_4_" gradientUnits="userSpaceOnUse" x1="27.0218" y1="34.8998" x2="39.362" y2="34.8998">
				<stop  offset="0" style="stop-color:#27AAE1"/>
				<stop  offset="1" style="stop-color:#2E3192"/>
			</linearGradient>
			<line class="st3" x1="27.68" y1="32.37" x2="38.71" y2="37.43"/>
			<linearGradient id="SVGID_5_" gradientUnits="userSpaceOnUse" x1="22.8738" y1="24.6012" x2="28.2687" y2="24.6012">
				<stop  offset="0" style="stop-color:#27AAE1"/>
				<stop  offset="1" style="stop-color:#2E3192"/>
			</linearGradient>
			<line class="st4" x1="27.61" y1="28.53" x2="23.53" y2="20.68"/>
			<linearGradient id="SVGID_6_" gradientUnits="userSpaceOnUse" x1="38.0516" y1="39.9538" x2="49.3746" y2="39.9538">
				<stop  offset="0" style="stop-color:#27AAE1"/>
				<stop  offset="1" style="stop-color:#2E3192"/>
			</linearGradient>
			<line class="st5" x1="48.72" y1="42.48" x2="38.71" y2="37.43"/>
			<linearGradient id="SVGID_7_" gradientUnits="userSpaceOnUse" x1="26.9583" y1="31.5042" x2="41.4646" y2="31.5042">
				<stop  offset="0" style="stop-color:#27AAE1"/>
				<stop  offset="1" style="stop-color:#2E3192"/>
			</linearGradient>
			<line class="st6" x1="27.61" y1="28.53" x2="40.81" y2="34.48"/>
			<linearGradient id="SVGID_8_" gradientUnits="userSpaceOnUse" x1="22.8738" y1="15.8124" x2="31.4314" y2="15.8124">
				<stop  offset="0" style="stop-color:#27AAE1"/>
				<stop  offset="1" style="stop-color:#2E3192"/>
			</linearGradient>
			<polyline class="st7" points="23.53,20.68 28.87,14.91 30.78,10.95 27.49,12.08 23.54,12.05 			"/>
			<linearGradient id="SVGID_9_" gradientUnits="userSpaceOnUse" x1="20.5852" y1="29.0512" x2="28.3323" y2="29.0512">
				<stop  offset="0" style="stop-color:#27AAE1"/>
				<stop  offset="1" style="stop-color:#2E3192"/>
			</linearGradient>
			<line class="st8" x1="27.68" y1="32.37" x2="21.24" y2="25.73"/>
			<linearGradient id="SVGID_10_" gradientUnits="userSpaceOnUse" x1="17.2" y1="19.0069" x2="21.8957" y2="19.0069">
				<stop  offset="0" style="stop-color:#27AAE1"/>
				<stop  offset="1" style="stop-color:#2E3192"/>
			</linearGradient>
			<polyline class="st9" points="17.86,12.28 18.52,18.24 21.24,25.73 			"/>
			<linearGradient id="SVGID_11_" gradientUnits="userSpaceOnUse" x1="14.2483" y1="8.1361" x2="20.7514" y2="8.1361">
				<stop  offset="0" style="stop-color:#27AAE1"/>
				<stop  offset="1" style="stop-color:#2E3192"/>
			</linearGradient>
			<polyline class="st10" points="20.1,9.38 15.04,3.99 14.9,8.35 17.86,12.28 			"/>
			<linearGradient id="SVGID_12_" gradientUnits="userSpaceOnUse" x1="19.4409" y1="8.2314" x2="23.8028" y2="8.2314">
				<stop  offset="0" style="stop-color:#27AAE1"/>
				<stop  offset="1" style="stop-color:#2E3192"/>
			</linearGradient>
			<line class="st11" x1="23.15" y1="7.09" x2="20.1" y2="9.38"/>
			<linearGradient id="SVGID_13_" gradientUnits="userSpaceOnUse" x1="41.2302" y1="30.4344" x2="54.1603" y2="30.4344">
				<stop  offset="0" style="stop-color:#27AAE1"/>
				<stop  offset="1" style="stop-color:#2E3192"/>
			</linearGradient>
			<polyline class="st12" points="53.51,39.88 51.33,36.06 46.37,30.62 44.84,20.99 41.89,25.57 43.41,30.43 49.16,37.62 			"/>
			<linearGradient id="SVGID_14_" gradientUnits="userSpaceOnUse" x1="42.7877" y1="17.4204" x2="47.7558" y2="17.4204">
				<stop  offset="0" style="stop-color:#27AAE1"/>
				<stop  offset="1" style="stop-color:#2E3192"/>
			</linearGradient>
			<polygon class="st13" points="43.9,22.45 47.1,17.86 43.44,12.4 			"/>
			<linearGradient id="SVGID_15_" gradientUnits="userSpaceOnUse" x1="31.1699" y1="44.9124" x2="47.9442" y2="44.9124">
				<stop  offset="0" style="stop-color:#27AAE1"/>
				<stop  offset="1" style="stop-color:#2E3192"/>
			</linearGradient>
			<polyline class="st14" points="38.98,44.9 31.83,39.37 34.83,45.95 38.98,49.33 47.29,50.46 			"/>
			<linearGradient id="SVGID_16_" gradientUnits="userSpaceOnUse" x1="46.6338" y1="44.9124" x2="58.8059" y2="44.9124">
				<stop  offset="0" style="stop-color:#27AAE1"/>
				<stop  offset="1" style="stop-color:#2E3192"/>
			</linearGradient>
			<polyline class="st15" points="47.29,50.46 49.7,45.15 48.72,42.48 48.72,42.48 54.44,39.37 58.15,40.54 			"/>
			<linearGradient id="SVGID_17_" gradientUnits="userSpaceOnUse" x1="46.6338" y1="59.6929" x2="61.2748" y2="59.6929">
				<stop  offset="0" style="stop-color:#27AAE1"/>
				<stop  offset="1" style="stop-color:#2E3192"/>
			</linearGradient>
			<polyline class="st16" points="60.62,68.93 56.6,68.93 54.25,66.19 52.28,64.79 52.28,62.44 49.16,55.51 47.29,50.46 			"/>
			<linearGradient id="SVGID_18_" gradientUnits="userSpaceOnUse" x1="38.3217" y1="45.0237" x2="50.36" y2="45.0237">
				<stop  offset="0" style="stop-color:#27AAE1"/>
				<stop  offset="1" style="stop-color:#2E3192"/>
			</linearGradient>
			<line class="st17" x1="38.98" y1="44.9" x2="49.7" y2="45.15"/>
			<linearGradient id="SVGID_19_" gradientUnits="userSpaceOnUse" x1="38.3217" y1="47.1136" x2="39.6322" y2="47.1136">
				<stop  offset="0" style="stop-color:#27AAE1"/>
				<stop  offset="1" style="stop-color:#2E3192"/>
			</linearGradient>
			<line class="st18" x1="38.98" y1="44.9" x2="38.98" y2="49.33"/>
		</g>
		<g>
			<g>
				<g>
					<path class="st23" d="M27.61,33.74c1.76,0,1.76-2.73,0-2.73C25.86,31.01,25.85,33.74,27.61,33.74L27.61,33.74z"/>
				</g>
			</g>
			<g>
				<g>
					<path class="st23" d="M38.36,38.54c1.76,0,1.76-2.73,0-2.73C36.6,35.81,36.6,38.54,38.36,38.54L38.36,38.54z"/>
				</g>
			</g>
			<g>
				<g>
					<path class="st23" d="M27.52,29.89c1.76,0,1.76-2.73,0-2.73C25.76,27.16,25.76,29.89,27.52,29.89L27.52,29.89z"/>
				</g>
			</g>
			<g>
				<g>
					<path class="st23" d="M23.51,22.07c1.76,0,1.76-2.73,0-2.73C21.76,19.34,21.75,22.07,23.51,22.07L23.51,22.07z"/>
				</g>
			</g>
			<g>
				<g>
					<path class="st23" d="M30.78,12.31c1.76,0,1.76-2.73,0-2.73C29.02,9.58,29.02,12.31,30.78,12.31L30.78,12.31z"/>
				</g>
			</g>
			<g>
				<g>
					<path class="st23" d="M43.44,14.05c1.76,0,1.76-2.73,0-2.73C41.69,11.32,41.68,14.05,43.44,14.05L43.44,14.05z"/>
				</g>
			</g>
			<g>
				<g>
					<path class="st23" d="M41.89,26.97c1.76,0,1.76-2.73,0-2.73C40.13,24.24,40.13,26.97,41.89,26.97L41.89,26.97z"/>
				</g>
			</g>
			<g>
				<g>
					<path class="st23" d="M34.21,19.83c1.76,0,1.76-2.73,0-2.73C32.45,17.1,32.45,19.83,34.21,19.83L34.21,19.83z"/>
				</g>
			</g>
			<g>
				<g>
					<path class="st23" d="M17.86,13.65c1.76,0,1.76-2.73,0-2.73C16.1,10.92,16.1,13.65,17.86,13.65L17.86,13.65z"/>
				</g>
			</g>
			<g>
				<g>
					<path class="st23" d="M21.26,26.97c1.76,0,1.76-2.73,0-2.73C19.5,24.24,19.5,26.97,21.26,26.97L21.26,26.97z"/>
				</g>
			</g>
			<g>
				<g>
					<path class="st23" d="M38.98,46.26c1.76,0,1.76-2.73,0-2.73C37.22,43.53,37.22,46.26,38.98,46.26L38.98,46.26z"/>
				</g>
			</g>
			<g>
				<g>
					<path class="st23" d="M49.13,38.92c1.76,0,1.76-2.73,0-2.73C47.38,36.19,47.37,38.92,49.13,38.92L49.13,38.92z"/>
				</g>
			</g>
			<g>
				<g>
					<path class="st23" d="M38.36,37.99c1.05,0,1.06-1.64,0-1.64C37.3,36.35,37.3,37.99,38.36,37.99L38.36,37.99z"/>
				</g>
			</g>
			<g>
				<g>
					<path class="st23" d="M28.81,15.73c1.05,0,1.06-1.64,0-1.64C27.75,14.09,27.75,15.73,28.81,15.73L28.81,15.73z"/>
				</g>
			</g>
			<g>
				<g>
					<path class="st23" d="M23.52,12.85c1.05,0,1.06-1.64,0-1.64C22.47,11.22,22.47,12.85,23.52,12.85L23.52,12.85z"/>
				</g>
			</g>
			<g>
				<g>
					<path class="st23" d="M15.04,4.79c1.05,0,1.06-1.64,0-1.64C13.99,3.15,13.99,4.79,15.04,4.79L15.04,4.79z"/>
				</g>
			</g>
			<g>
				<g>
					<path class="st23" d="M47.04,18.68c1.05,0,1.06-1.64,0-1.64C45.99,17.04,45.99,18.68,47.04,18.68L47.04,18.68z"/>
				</g>
			</g>
			<g>
				<g>
					<path class="st23" d="M46.57,32.29c1.76,0,1.76-2.73,0-2.73C44.82,29.56,44.81,32.29,46.57,32.29L46.57,32.29z"/>
				</g>
			</g>
			<g>
				<g>
					<path class="st23" d="M53.46,41.21c1.76,0,1.76-2.73,0-2.73C51.7,38.48,51.7,41.21,53.46,41.21L53.46,41.21z"/>
				</g>
			</g>
			<g>
				<g>
					<path class="st23" d="M31.83,40.46c1.41,0,1.41-2.18,0-2.18C30.42,38.27,30.42,40.46,31.83,40.46L31.83,40.46z"/>
				</g>
			</g>
			<g>
				<g>
					<path class="st23" d="M34.85,47.04c1.41,0,1.41-2.18,0-2.18C33.45,44.85,33.45,47.04,34.85,47.04L34.85,47.04z"/>
				</g>
			</g>
			<g>
				<g>
					<path class="st23" d="M39.05,50.4c1.41,0,1.41-2.18,0-2.18C37.64,48.21,37.64,50.4,39.05,50.4L39.05,50.4z"/>
				</g>
			</g>
			<g>
				<g>
					<path class="st23" d="M47.3,51.52c1.41,0,1.41-2.18,0-2.18C45.89,49.34,45.89,51.52,47.3,51.52L47.3,51.52z"/>
				</g>
			</g>
			<g>
				<g>
					<path class="st23" d="M27.14,4.19c1.41,0,1.41-2.18,0-2.18C25.73,2.01,25.73,4.19,27.14,4.19L27.14,4.19z"/>
				</g>
			</g>
			<g>
				<g>
					<path class="st23" d="M23.04,8.29c1.41,0,1.41-2.18,0-2.18C21.63,6.11,21.63,8.29,23.04,8.29L23.04,8.29z"/>
				</g>
			</g>
			<g>
				<g>
					<path class="st23" d="M51.23,37.12c1.41,0,1.41-2.18,0-2.18C49.83,34.94,49.82,37.12,51.23,37.12L51.23,37.12z"/>
				</g>
			</g>
			<g>
				<g>
					<path class="st23" d="M48.72,43.51c1.41,0,1.41-2.18,0-2.18C47.31,41.33,47.31,43.51,48.72,43.51L48.72,43.51z"/>
				</g>
			</g>
			<g>
				<g>
					<path class="st23" d="M49.64,46.15c1.41,0,1.41-2.18,0-2.18C48.24,43.96,48.23,46.15,49.64,46.15L49.64,46.15z"/>
				</g>
			</g>
			<g>
				<g>
					<path class="st23" d="M52.25,63.55c1.41,0,1.41-2.18,0-2.18C50.84,61.37,50.84,63.55,52.25,63.55L52.25,63.55z"/>
				</g>
			</g>
			<g>
				<g>
					<path class="st23" d="M56.6,70.29c1.76,0,1.76-2.73,0-2.73C54.85,67.56,54.84,70.29,56.6,70.29L56.6,70.29z"/>
				</g>
			</g>
			<g>
				<g>
					<path class="st23" d="M54.33,67.37c1.41,0,1.41-2.18,0-2.18C52.92,65.19,52.92,67.37,54.33,67.37L54.33,67.37z"/>
				</g>
			</g>
			<g>
				<g>
					<path class="st23" d="M20.1,10.18c1.05,0,1.06-1.64,0-1.64C19.04,8.54,19.04,10.18,20.1,10.18L20.1,10.18z"/>
				</g>
			</g>
			<g>
				<g>
					<path class="st23" d="M40.55,35.58c1.76,0,1.76-2.73,0-2.73C38.79,32.85,38.79,35.58,40.55,35.58L40.55,35.58z"/>
				</g>
			</g>
			<g>
				<g>
					<path class="st23" d="M36.89,30.87c1.76,0,1.76-2.73,0-2.73C35.14,28.14,35.13,30.87,36.89,30.87L36.89,30.87z"/>
				</g>
			</g>
		</g>
		
			<linearGradient id="SVGID_20_" gradientUnits="userSpaceOnUse" x1="50.0921" y1="7.5429" x2="55.503" y2="7.5429" gradientTransform="matrix(-1 0 0 1 144.7458 0)">
			<stop  offset="0" style="stop-color:#760000"/>
			<stop  offset="1" style="stop-color:#ED1C24"/>
		</linearGradient>
		<polyline class="st19" points="94,7.09 89.9,3.03 93.61,12.05 		"/>
		
			<linearGradient id="SVGID_21_" gradientUnits="userSpaceOnUse" x1="58.7697" y1="40.9233" x2="76.9744" y2="40.9233" gradientTransform="matrix(-1 0 0 1 144.7458 0)">
			<stop  offset="0" style="stop-color:#760000"/>
			<stop  offset="1" style="stop-color:#ED1C24"/>
		</linearGradient>
		<line class="st20" x1="85.32" y1="39.37" x2="68.43" y2="42.48"/>
		
			<linearGradient id="SVGID_22_" gradientUnits="userSpaceOnUse" x1="60.8325" y1="30.3664" x2="77.4194" y2="30.3664" gradientTransform="matrix(-1 0 0 1 144.7458 0)">
			<stop  offset="0" style="stop-color:#760000"/>
			<stop  offset="1" style="stop-color:#ED1C24"/>
		</linearGradient>
		<path class="st21" d="M68.43,42.48l-0.44-4.86c0,0,8.23-6.95,8.32-6.92s6.95-12.45,6.95-12.45l-2.79,10.99l-3.59,4.69L68.43,42.48
			z"/>
		
			<linearGradient id="SVGID_23_" gradientUnits="userSpaceOnUse" x1="54.6216" y1="34.8998" x2="66.9618" y2="34.8998" gradientTransform="matrix(-1 0 0 1 144.7458 0)">
			<stop  offset="0" style="stop-color:#760000"/>
			<stop  offset="1" style="stop-color:#ED1C24"/>
		</linearGradient>
		<line class="st22" x1="89.47" y1="32.37" x2="78.44" y2="37.43"/>
		
			<linearGradient id="SVGID_24_" gradientUnits="userSpaceOnUse" x1="50.4736" y1="24.6012" x2="55.8685" y2="24.6012" gradientTransform="matrix(-1 0 0 1 144.7458 0)">
			<stop  offset="0" style="stop-color:#760000"/>
			<stop  offset="1" style="stop-color:#ED1C24"/>
		</linearGradient>
		<line class="st24" x1="89.53" y1="28.53" x2="93.62" y2="20.68"/>
		
			<linearGradient id="SVGID_25_" gradientUnits="userSpaceOnUse" x1="65.6514" y1="39.9538" x2="76.9744" y2="39.9538" gradientTransform="matrix(-1 0 0 1 144.7458 0)">
			<stop  offset="0" style="stop-color:#760000"/>
			<stop  offset="1" style="stop-color:#ED1C24"/>
		</linearGradient>
		<line class="st25" x1="68.43" y1="42.48" x2="78.44" y2="37.43"/>
		
			<linearGradient id="SVGID_26_" gradientUnits="userSpaceOnUse" x1="54.5581" y1="31.5042" x2="69.0644" y2="31.5042" gradientTransform="matrix(-1 0 0 1 144.7458 0)">
			<stop  offset="0" style="stop-color:#760000"/>
			<stop  offset="1" style="stop-color:#ED1C24"/>
		</linearGradient>
		<line class="st26" x1="89.53" y1="28.53" x2="76.34" y2="34.48"/>
		
			<linearGradient id="SVGID_27_" gradientUnits="userSpaceOnUse" x1="50.4736" y1="15.8124" x2="59.0312" y2="15.8124" gradientTransform="matrix(-1 0 0 1 144.7458 0)">
			<stop  offset="0" style="stop-color:#760000"/>
			<stop  offset="1" style="stop-color:#ED1C24"/>
		</linearGradient>
		<polyline class="st27" points="93.62,20.68 88.28,14.91 86.37,10.95 89.65,12.08 93.61,12.05 		"/>
		
			<linearGradient id="SVGID_28_" gradientUnits="userSpaceOnUse" x1="48.185" y1="29.0512" x2="55.9321" y2="29.0512" gradientTransform="matrix(-1 0 0 1 144.7458 0)">
			<stop  offset="0" style="stop-color:#760000"/>
			<stop  offset="1" style="stop-color:#ED1C24"/>
		</linearGradient>
		<line class="st28" x1="89.47" y1="32.37" x2="95.91" y2="25.73"/>
		
			<linearGradient id="SVGID_29_" gradientUnits="userSpaceOnUse" x1="44.7998" y1="19.0069" x2="49.4955" y2="19.0069" gradientTransform="matrix(-1 0 0 1 144.7458 0)">
			<stop  offset="0" style="stop-color:#760000"/>
			<stop  offset="1" style="stop-color:#ED1C24"/>
		</linearGradient>
		<polyline class="st29" points="99.29,12.28 98.62,18.24 95.91,25.73 		"/>
		
			<linearGradient id="SVGID_30_" gradientUnits="userSpaceOnUse" x1="41.8481" y1="8.1361" x2="48.3512" y2="8.1361" gradientTransform="matrix(-1 0 0 1 144.7458 0)">
			<stop  offset="0" style="stop-color:#760000"/>
			<stop  offset="1" style="stop-color:#ED1C24"/>
		</linearGradient>
		<polyline class="st30" points="97.05,9.38 102.1,3.99 102.24,8.35 99.29,12.28 		"/>
		
			<linearGradient id="SVGID_31_" gradientUnits="userSpaceOnUse" x1="47.0407" y1="8.2314" x2="51.4026" y2="8.2314" gradientTransform="matrix(-1 0 0 1 144.7458 0)">
			<stop  offset="0" style="stop-color:#760000"/>
			<stop  offset="1" style="stop-color:#ED1C24"/>
		</linearGradient>
		<line class="st31" x1="94" y1="7.09" x2="97.05" y2="9.38"/>
		
			<linearGradient id="SVGID_32_" gradientUnits="userSpaceOnUse" x1="68.83" y1="30.4344" x2="81.7601" y2="30.4344" gradientTransform="matrix(-1 0 0 1 144.7458 0)">
			<stop  offset="0" style="stop-color:#760000"/>
			<stop  offset="1" style="stop-color:#ED1C24"/>
		</linearGradient>
		<polyline class="st32" points="63.64,39.88 65.82,36.06 70.78,30.62 72.3,20.99 75.26,25.57 73.73,30.43 67.98,37.62 		"/>
		
			<linearGradient id="SVGID_33_" gradientUnits="userSpaceOnUse" x1="70.3875" y1="17.4204" x2="75.3556" y2="17.4204" gradientTransform="matrix(-1 0 0 1 144.7458 0)">
			<stop  offset="0" style="stop-color:#760000"/>
			<stop  offset="1" style="stop-color:#ED1C24"/>
		</linearGradient>
		<polygon class="st33" points="73.24,22.45 70.05,17.86 73.7,12.4 		"/>
		
			<linearGradient id="SVGID_34_" gradientUnits="userSpaceOnUse" x1="58.7697" y1="44.9124" x2="75.544" y2="44.9124" gradientTransform="matrix(-1 0 0 1 144.7458 0)">
			<stop  offset="0" style="stop-color:#760000"/>
			<stop  offset="1" style="stop-color:#ED1C24"/>
		</linearGradient>
		<polyline class="st34" points="78.17,44.9 85.32,39.37 82.32,45.95 78.17,49.33 69.86,50.46 		"/>
		
			<linearGradient id="SVGID_35_" gradientUnits="userSpaceOnUse" x1="74.2336" y1="44.9124" x2="86.4057" y2="44.9124" gradientTransform="matrix(-1 0 0 1 144.7458 0)">
			<stop  offset="0" style="stop-color:#760000"/>
			<stop  offset="1" style="stop-color:#ED1C24"/>
		</linearGradient>
		<polyline class="st35" points="59,40.54 62.71,39.37 68.43,42.48 68.43,42.48 67.44,45.15 69.86,50.46 		"/>
		
			<linearGradient id="SVGID_36_" gradientUnits="userSpaceOnUse" x1="74.2336" y1="59.6929" x2="84.8573" y2="59.6929" gradientTransform="matrix(-1 0 0 1 144.7458 0)">
			<stop  offset="0" style="stop-color:#760000"/>
			<stop  offset="1" style="stop-color:#ED1C24"/>
		</linearGradient>
		<polyline class="st36" points="60.54,68.93 62.9,66.19 64.87,64.79 64.87,62.44 67.98,55.51 69.86,50.46 		"/>
		
			<linearGradient id="SVGID_37_" gradientUnits="userSpaceOnUse" x1="65.9215" y1="45.0237" x2="77.9598" y2="45.0237" gradientTransform="matrix(-1 0 0 1 144.7458 0)">
			<stop  offset="0" style="stop-color:#760000"/>
			<stop  offset="1" style="stop-color:#ED1C24"/>
		</linearGradient>
		<line class="st37" x1="78.17" y1="44.9" x2="67.44" y2="45.15"/>
		
			<linearGradient id="SVGID_38_" gradientUnits="userSpaceOnUse" x1="65.9215" y1="47.1136" x2="67.232" y2="47.1136" gradientTransform="matrix(-1 0 0 1 144.7458 0)">
			<stop  offset="0" style="stop-color:#760000"/>
			<stop  offset="1" style="stop-color:#ED1C24"/>
		</linearGradient>
		<line class="st38" x1="78.17" y1="44.9" x2="78.17" y2="49.33"/>
		<g>
			<g>
				<g>
					<path class="st47" d="M89.53,33.74c1.76,0,1.76-2.73,0-2.73C87.78,31.01,87.77,33.74,89.53,33.74L89.53,33.74z"/>
				</g>
			</g>
			<g>
				<g>
					<path class="st47" d="M78.44,38.79c1.76,0,1.76-2.73,0-2.73C76.68,36.06,76.68,38.79,78.44,38.79L78.44,38.79z"/>
				</g>
			</g>
			<g>
				<g>
					<path class="st47" d="M89.63,29.89c1.76,0,1.76-2.73,0-2.73C87.87,27.16,87.87,29.89,89.63,29.89L89.63,29.89z"/>
				</g>
			</g>
			<g>
				<g>
					<path class="st47" d="M93.63,22.07c1.76,0,1.76-2.73,0-2.73C91.88,19.34,91.87,22.07,93.63,22.07L93.63,22.07z"/>
				</g>
			</g>
			<g>
				<g>
					<path class="st47" d="M86.37,12.31c1.76,0,1.76-2.73,0-2.73C84.61,9.58,84.61,12.31,86.37,12.31L86.37,12.31z"/>
				</g>
			</g>
			<g>
				<g>
					<path class="st47" d="M73.7,14.05c1.76,0,1.76-2.73,0-2.73C71.95,11.32,71.94,14.05,73.7,14.05L73.7,14.05z"/>
				</g>
			</g>
			<g>
				<g>
					<path class="st47" d="M75.26,26.97c1.76,0,1.76-2.73,0-2.73C73.5,24.24,73.5,26.97,75.26,26.97L75.26,26.97z"/>
				</g>
			</g>
			<g>
				<g>
					<path class="st47" d="M82.93,19.83c1.76,0,1.76-2.73,0-2.73C81.18,17.1,81.17,19.83,82.93,19.83L82.93,19.83z"/>
				</g>
			</g>
			<g>
				<g>
					<path class="st47" d="M99.29,13.65c1.76,0,1.76-2.73,0-2.73C97.53,10.92,97.53,13.65,99.29,13.65L99.29,13.65z"/>
				</g>
			</g>
			<g>
				<g>
					<path class="st47" d="M95.89,26.97c1.76,0,1.76-2.73,0-2.73C94.13,24.24,94.13,26.97,95.89,26.97L95.89,26.97z"/>
				</g>
			</g>
			<g>
				<g>
					<path class="st47" d="M78.17,46.26c1.76,0,1.76-2.73,0-2.73C76.41,43.53,76.41,46.26,78.17,46.26L78.17,46.26z"/>
				</g>
			</g>
			<g>
				<g>
					<path class="st47" d="M68.01,38.92c1.76,0,1.76-2.73,0-2.73C66.26,36.19,66.25,38.92,68.01,38.92L68.01,38.92z"/>
				</g>
			</g>
			<g>
				<g>
					<path class="st47" d="M88.34,15.73c1.05,0,1.06-1.64,0-1.64C87.29,14.09,87.28,15.73,88.34,15.73L88.34,15.73z"/>
				</g>
			</g>
			<g>
				<g>
					<path class="st47" d="M93.62,12.85c1.05,0,1.06-1.64,0-1.64C92.57,11.22,92.57,12.85,93.62,12.85L93.62,12.85z"/>
				</g>
			</g>
			<g>
				<g>
					<path class="st47" d="M102.1,4.79c1.05,0,1.06-1.64,0-1.64C101.05,3.15,101.05,4.79,102.1,4.79L102.1,4.79z"/>
				</g>
			</g>
			<g>
				<g>
					<path class="st47" d="M70.1,18.68c1.05,0,1.06-1.64,0-1.64C69.05,17.04,69.05,18.68,70.1,18.68L70.1,18.68z"/>
				</g>
			</g>
			<g>
				<g>
					<path class="st47" d="M70.57,32.29c1.76,0,1.76-2.73,0-2.73C68.82,29.56,68.81,32.29,70.57,32.29L70.57,32.29z"/>
				</g>
			</g>
			<g>
				<g>
					<path class="st47" d="M63.69,41.21c1.76,0,1.76-2.73,0-2.73C61.93,38.48,61.93,41.21,63.69,41.21L63.69,41.21z"/>
				</g>
			</g>
			<g>
				<g>
					<path class="st47" d="M58.44,41.91c1.76,0,1.76-2.73,0-2.73C56.68,39.18,56.68,41.91,58.44,41.91L58.44,41.91z"/>
				</g>
			</g>
			<g>
				<g>
					<path class="st47" d="M85.32,40.46c1.41,0,1.41-2.18,0-2.18C83.92,38.27,83.91,40.46,85.32,40.46L85.32,40.46z"/>
				</g>
			</g>
			<g>
				<g>
					<path class="st47" d="M82.29,47.04c1.41,0,1.41-2.18,0-2.18C80.89,44.85,80.89,47.04,82.29,47.04L82.29,47.04z"/>
				</g>
			</g>
			<g>
				<g>
					<path class="st47" d="M78.1,50.4c1.41,0,1.41-2.18,0-2.18C76.69,48.21,76.69,50.4,78.1,50.4L78.1,50.4z"/>
				</g>
			</g>
			<g>
				<g>
					<path class="st47" d="M69.85,51.52c1.41,0,1.41-2.18,0-2.18C68.44,49.34,68.44,51.52,69.85,51.52L69.85,51.52z"/>
				</g>
			</g>
			<g>
				<g>
					<path class="st47" d="M90.01,4.19c1.41,0,1.41-2.18,0-2.18C88.6,2.01,88.6,4.19,90.01,4.19L90.01,4.19z"/>
				</g>
			</g>
			<g>
				<g>
					<path class="st47" d="M94.11,8.29c1.41,0,1.41-2.18,0-2.18C92.7,6.11,92.7,8.29,94.11,8.29L94.11,8.29z"/>
				</g>
			</g>
			<g>
				<g>
					<path class="st47" d="M65.92,37.12c1.41,0,1.41-2.18,0-2.18C64.51,34.94,64.51,37.12,65.92,37.12L65.92,37.12z"/>
				</g>
			</g>
			<g>
				<g>
					<path class="st47" d="M68.43,43.51c1.41,0,1.41-2.18,0-2.18C67.02,41.33,67.02,43.51,68.43,43.51L68.43,43.51z"/>
				</g>
			</g>
			<g>
				<g>
					<path class="st47" d="M67.5,46.15c1.41,0,1.41-2.18,0-2.18C66.1,43.96,66.1,46.15,67.5,46.15L67.5,46.15z"/>
				</g>
			</g>
			<g>
				<g>
					<path class="st47" d="M64.9,63.55c1.41,0,1.41-2.18,0-2.18C63.49,61.37,63.49,63.55,64.9,63.55L64.9,63.55z"/>
				</g>
			</g>
			<g>
				<g>
					<path class="st47" d="M60.54,70.29c1.76,0,1.76-2.73,0-2.73C58.79,67.56,58.78,70.29,60.54,70.29L60.54,70.29z"/>
				</g>
			</g>
			<g>
				<g>
					<path class="st47" d="M62.82,67.37c1.41,0,1.41-2.18,0-2.18C61.41,65.19,61.41,67.37,62.82,67.37L62.82,67.37z"/>
				</g>
			</g>
			<g>
				<g>
					<path class="st47" d="M97.05,10.18c1.05,0,1.06-1.64,0-1.64C96,8.54,95.99,10.18,97.05,10.18L97.05,10.18z"/>
				</g>
			</g>
			<g>
				<g>
					<path class="st47" d="M76.6,35.58c1.76,0,1.76-2.73,0-2.73C74.84,32.85,74.84,35.58,76.6,35.58L76.6,35.58z"/>
				</g>
			</g>
			<g>
				<g>
					<path class="st47" d="M80.25,30.87c1.76,0,1.76-2.73,0-2.73C78.5,28.14,78.49,30.87,80.25,30.87L80.25,30.87z"/>
				</g>
			</g>
		</g>
	</g>
	<polygon class="st49" points="17.79,63.28 23.51,63.28 23.51,62.29 17.79,62.29 17.79,57.53 24.53,57.53 24.53,56.54 16.78,56.54 
		16.78,69.22 24.5,69.22 24.59,68.23 17.79,68.23 	"/>
	<polygon class="st49" points="27.98,56.54 26.97,56.54 26.97,69.22 34.04,69.22 34.04,68.23 27.98,68.23 	"/>
	<path class="st49" d="M38.63,62.76l6.49-6.22h-1.11c-0.13,0-0.24,0.02-0.34,0.07c-0.07,0.03-0.14,0.09-0.25,0.17l-5.53,5.31
		c-0.05,0.05-0.1,0.09-0.15,0.12c-0.02,0.02-0.05,0.03-0.07,0.04c-0.03,0.01-0.06,0.01-0.1,0.02c-0.07,0.01-0.15,0.01-0.24,0.01
		h-0.39v-5.75h-1.01v12.71h1.01v-5.97h0.39c0.1,0,0.18,0,0.24,0.01c0.04,0,0.07,0.01,0.1,0.02c0.03,0.01,0.06,0.03,0.09,0.05
		c0.05,0.04,0.11,0.09,0.18,0.15l5.83,5.51c0.08,0.08,0.16,0.14,0.24,0.18c0.09,0.04,0.2,0.06,0.35,0.06h1.1L38.63,62.76z"/>
	<path class="st50" d="M86.14,56.75l-0.1-0.25h-0.71l-5.33,12.78h0.5h0.25c0.24,0,0.44-0.14,0.49-0.33l1.56-3.75h5.77l1.55,3.71
		c0.07,0.23,0.26,0.38,0.49,0.38h0.76L86.14,56.75z M83.2,64.21l2.48-5.95l2.48,5.95H83.2z"/>
	<path class="st50" d="M98.18,56.75l-3.93,6.1l-3.93-6.1c-0.1-0.16-0.27-0.25-0.46-0.25h-0.92l4.8,7.41v5.37h1.01v-5.37l4.8-7.41
		h-0.91C98.46,56.5,98.29,56.59,98.18,56.75z"/>
	<polygon class="st50" points="101.82,63.29 107.58,63.29 107.58,62.3 101.82,62.3 101.82,57.5 108.6,57.5 108.6,56.5 100.8,56.5 
		100.8,69.28 108.57,69.28 108.66,68.28 101.82,68.28 	"/>
	<path class="st50" d="M115.15,63.42c0.28-0.04,0.54-0.11,0.8-0.19c0.52-0.17,0.98-0.41,1.36-0.71c0.39-0.31,0.69-0.69,0.91-1.14
		c0.21-0.44,0.32-0.94,0.32-1.49c0-1.16-0.39-2.03-1.17-2.59c-0.74-0.53-1.79-0.8-3.11-0.8h-3.17v12.78h1.01V63.5h1.46
		c0.1,0,0.19,0,0.26,0.01c0.05,0,0.09,0.01,0.15,0.05c0.03,0.03,0.06,0.06,0.1,0.1l4.49,5.38c0.07,0.08,0.17,0.17,0.29,0.2
		c0.07,0.02,0.15,0.03,0.24,0.03h1L115.15,63.42z M112.08,57.48h2.16c1.09,0,1.93,0.2,2.49,0.6c0.52,0.37,0.78,0.98,0.78,1.81
		c0,0.41-0.08,0.78-0.23,1.09c-0.15,0.31-0.37,0.58-0.65,0.8c-0.29,0.23-0.65,0.41-1.07,0.53c-0.43,0.13-0.93,0.19-1.47,0.19h-2.01
		V57.48z"/>
	<polygon class="st50" points="78.59,68.28 73.22,68.28 73.22,56.5 72.21,56.5 72.21,69.28 78.59,69.28 	"/>
</g>
</svg>
